<?xml version="1.0" encoding="UTF-8"?>
<!DOCTYPE svg PUBLIC "-//W3C//DTD SVG 1.1//EN" "http://www.w3.org/Graphics/SVG/1.1/DTD/svg11.dtd">
<svg version="1.1" xmlns="http://www.w3.org/2000/svg" xmlns:xlink="http://www.w3.org/1999/xlink" x="0" y="0" width="857" height="1029" viewBox="0, 0, 857, 1029">
  <defs>
    <clipPath id="Clip_1">
      <path d="M0,1029 L856.894,1029 L856.894,0.43 L0,0.43 z"/>
    </clipPath>
  </defs>
  <g id="Layer_1">
    <g clip-path="url(#Clip_1)">
      <path d="M373.491,1001.75 L581.491,1001.75 L585.491,965.088 L683.491,821.755 L598.824,708.422 L473.491,725.755 L350.158,713.755 L276.158,827.088 L270.824,833.088 L191.491,766.422 L129.491,813.755 L174.158,874.422 L238.158,933.088 L276.824,956.422 L293.491,959.755 L361.491,885.088 L373.491,1001.75" fill="#FFFFFF"/>
      <path d="M594.201,964.908 C608.277,906.404 622.347,847.898 636.455,789.401 C636.977,787.237 637.045,785.424 635.918,783.272 C624.804,762.039 612.738,741.377 599.672,721.283 C597.81,718.419 596.294,717.696 592.917,718.83 C585.836,721.207 578.585,723.145 571.302,724.821 C568.193,725.536 566.568,726.89 565.318,729.816 C539.419,790.467 513.403,851.068 487.439,911.692 C485.945,915.181 484.289,918.425 480.021,918.923 C474.919,919.518 472.099,916.887 470.237,912.304 C453.05,869.982 435.756,827.703 418.505,785.407 C411.48,768.184 404.432,750.971 397.531,733.698 C396.441,730.968 395.181,729.364 391.987,729.077 C381.034,728.091 370.254,725.949 359.695,722.928 C356.284,721.952 354.859,722.855 353.088,725.724 C332.207,759.554 311.544,793.524 289.439,826.582 C288.052,828.656 286.646,830.719 285.181,832.738 C279.005,841.243 272.96,843.041 263.133,839.041 C251.224,834.193 241.574,825.943 231.897,817.798 C217.608,805.772 204.422,792.57 191.404,779.209 C189.105,776.849 187.764,776.544 185.041,778.8 C170.424,790.915 155.612,802.794 140.813,814.688 C138.956,816.18 137.608,817.095 139.687,819.706 C174.028,862.834 210.717,903.599 255.904,935.865 C262.54,940.603 269.639,944.627 276.54,948.953 C280.667,951.54 283.565,950.925 287.205,948.176 C298.837,939.393 308.976,929.045 318.755,918.363 C330.219,905.842 341.217,892.896 352.536,880.241 C354.72,877.799 355.529,875.423 355.005,872.146 C354.021,865.991 356.949,861.679 362.075,861.027 C367.376,860.352 370.93,864.029 371.606,870.642 C375.752,911.208 379.925,951.772 384.12,992.334 C384.783,998.741 382.195,1002.84 376.939,1003.39 C371.371,1003.98 368.065,1000.63 367.369,993.869 C367.109,991.347 366.849,988.824 366.589,986.302 C363.809,959.352 361.009,932.405 358.203,905.458 C358.066,904.144 357.768,902.847 357.376,900.552 C353.942,904.461 350.993,907.85 348.01,911.208 C333.741,927.268 319.447,943.326 302.945,957.171 C286.251,971.179 281.705,971.496 263.117,960.523 C237.72,945.531 215.387,926.601 194.316,906.151 C167.856,880.471 143.701,852.731 121.403,823.37 C119.287,820.583 117.085,817.891 118.049,813.915 C118.805,810.796 115.801,811.551 114.473,811.196 C93.526,805.595 73.274,798.169 54.014,788.187 C35.426,778.553 18.47,766.75 8.457,747.705 C-4.572,722.921 -2.078,698.36 12.715,675.281 C21.969,660.844 36.551,658.339 52.446,661.483 C63.324,663.635 73.228,668.359 82.915,673.583 C98.316,681.888 112.776,691.673 127.159,701.584 C129.204,702.993 131.283,704.352 134.002,706.175 C133.666,696.913 133.19,688.268 134.393,679.671 C135.045,675.014 136.198,670.535 138.461,666.403 C144.754,654.907 157.388,652.192 167.6,660.442 C176.857,667.921 181.764,678.345 185.596,689.266 C192.753,709.668 192.403,730.788 191.07,751.945 C190.899,754.657 191.156,756.13 193.701,757.916 C197.455,760.549 200.38,764.364 203.655,767.679 C221.446,785.696 239.165,803.807 260.113,818.286 C270.122,825.204 270.22,825.087 276.777,815.233 C297.605,783.927 317.167,751.822 336.992,719.883 C338.152,718.015 339.519,716.667 336.013,715.271 C266.022,687.403 223.704,634.825 201.765,564.242 C197.915,551.854 195.089,539.177 193.458,526.287 C193.054,523.095 191.62,522.21 188.636,522.025 C180.649,521.531 172.765,520.167 165.168,517.631 C145.653,511.116 135.107,496.166 134.618,474.935 C134.137,454.054 143.028,438.775 161.619,429.234 C163.563,428.236 164.783,427.771 163.863,424.927 C151.143,385.62 146.114,345.23 150.701,304.235 C160.599,215.777 196.387,140.181 265.249,82.025 C287.155,63.526 312.362,50.452 339.003,39.921 C347.719,36.476 355.521,30.863 364.205,27.107 C403.154,10.26 443.898,1.811 486.247,0.584 C537.585,-0.903 586.841,8.282 632.368,32.277 C715.501,76.091 767.242,144.245 786.334,236.549 C796.089,283.714 795.418,331.138 788.615,378.633 C786.325,394.619 783.387,410.469 779.615,426.163 C778.992,428.756 779.304,430.292 781.828,431.792 C808.087,447.401 808.26,478.437 798.991,497.197 C792.206,510.929 779.677,516.815 765.515,519.855 C760.488,520.934 755.332,521.44 750.221,522.104 C741.583,523.225 743.534,521.619 742.578,529.784 C739.78,553.67 734.825,577.019 726.062,599.469 C706.604,649.318 671.025,683.791 623.479,706.806 C620.208,708.389 616.87,709.832 613.342,711.441 C623.819,727.497 633.559,743.732 643.21,761.195 C645.442,751.879 647.453,743.413 649.5,734.956 C651.616,726.218 654.806,724.221 663.431,726.291 C721.454,740.216 779.474,754.149 837.49,768.099 C844.338,769.745 846.479,773.531 844.742,780.804 C837.867,809.583 831.044,838.374 823.991,867.109 C823.173,870.442 823.561,871.971 826.727,873.682 C837.656,879.588 846.268,887.968 852.111,899.075 C857.35,909.035 858.168,919.724 855.139,930.112 C846.865,958.494 830.441,981.449 806.617,999.016 C802.73,1001.88 798.513,1004.33 793.925,1005.86 C790.983,1006.83 789.83,1008.61 789.29,1011.48 C788.522,1015.56 787.495,1019.6 786.329,1023.58 C785.295,1027.11 783.027,1029.08 779.01,1029 C770.235,1028.81 762.042,1025.84 753.67,1023.84 C702.897,1011.76 652.179,999.44 601.418,987.302 C597.477,986.359 593.807,985.364 591.196,980.43 C590.516,986.132 589.987,990.554 589.462,994.976 C588.758,1000.91 585.242,1004.01 579.925,1003.39 C574.865,1002.8 572.259,998.654 572.869,992.745 C576.769,954.993 580.601,917.233 584.455,879.476 C584.776,876.33 585.121,873.186 585.406,870.037 C585.938,864.167 589.489,860.616 594.508,860.985 C599.435,861.348 602.737,865.539 602.198,871.288 C600.518,889.186 598.681,907.068 596.929,924.96 C595.697,937.544 594.504,950.132 593.294,962.719 C592.519,964.814 593.784,967.046 592.919,968.484 C592.915,967.599 593.16,966.127 594.201,964.908" fill="#6E4100"/>
    </g>
    <path d="M601.184,752.77 C599.082,766.25 597.072,779.228 595.03,792.201 C593.169,804.024 591.07,815.815 589.481,827.674 C588.735,833.24 586.11,836.368 580.745,837.688 C575.749,838.917 570.877,840.664 565.867,841.827 C563.17,842.453 562.448,843.283 563.091,846.175 C565.149,855.422 566.661,864.79 568.701,874.042 C569.601,878.122 568.384,881.093 565.652,883.927 C549.717,900.457 533.839,917.042 517.928,933.595 C513.899,937.786 508.72,938.352 505.099,935.062 C501.278,931.591 501.441,926.306 505.69,921.876 C519.855,907.106 534.035,892.348 548.306,877.681 C550.696,875.224 551.652,873.086 550.75,869.403 C548.381,859.735 546.722,849.893 544.776,840.122 C543.511,833.769 545.538,830.245 551.687,828.393 C556.772,826.862 561.818,824.919 567.027,824.156 C572.45,823.361 573.723,820.295 574.424,815.602 C577.591,794.396 580.982,773.223 584.385,752.052 C585.228,746.811 589.047,743.973 593.825,744.635 C598.254,745.248 601.298,748.833 601.184,752.77" fill="#6E4100"/>
    <path d="M388.312,876.34 C390.158,867.045 391.659,857.663 393.99,848.492 C395.214,843.674 393.803,841.988 389.349,841.07 C384.807,840.134 380.426,838.448 375.911,837.352 C371.286,836.23 368.974,833.528 368.241,828.789 C364.477,804.468 360.511,780.178 356.668,755.87 C355.667,749.54 358.321,745.343 363.554,744.626 C368.852,743.901 372.38,747.113 373.366,753.448 C376.743,775.139 380.177,796.82 383.502,818.518 C383.901,821.122 384.787,822.571 387.606,823.242 C393.739,824.702 399.783,826.558 405.815,828.408 C411.904,830.277 413.829,833.467 412.638,839.612 C410.71,849.56 408.728,859.498 406.669,869.42 C406.024,872.528 406.351,874.85 408.849,877.391 C423.318,892.107 437.534,907.071 451.824,921.963 C455.941,926.254 456.26,931.274 452.694,934.806 C449.217,938.25 443.895,937.932 439.905,933.81 C423.697,917.066 407.547,900.266 391.374,883.487 C389.458,881.499 388.149,879.262 388.312,876.34" fill="#6E4100"/>
    <path d="M594.201,964.908 C593.826,966.627 593.451,968.347 592.801,971.322 C592.22,967.479 592.338,965.064 593.294,962.719 C593.596,963.448 593.898,964.178 594.201,964.908" fill="#F1EDE9"/>
    <path d="M723.444,543.146 C720.534,565.753 714.011,587.31 703.995,607.739 C682.77,651.027 647.592,678.797 603.923,696.99 C572.899,709.915 540.366,714.481 506.995,715.268 C483.026,715.834 459.064,716.63 435.102,715.778 C399.707,714.519 364.784,710.568 332.067,695.555 C278.978,671.193 244.216,630.119 223.542,576.284 C220.151,567.455 217.055,558.497 215.322,549.146 C217.339,547.888 217.453,547.772 219.923,550.211 C225.513,555.733 232.193,559.38 239.649,561.476 C247.494,563.681 255.439,565.482 263.739,564.314 C279.858,562.046 290.38,552.045 298.042,538.754 C308.048,521.395 303.24,505.005 293.125,489.558 C286.301,479.138 276.948,472.176 264.223,470.116 C251.597,468.072 240.538,471.505 230.41,478.754 C222.23,484.609 216.521,492.493 212.283,501.517 C211.649,502.867 211.302,504.409 210.146,505.425 C208.201,507.137 208.124,505.232 207.702,504.063 C205.217,480.613 207.381,457.153 207.775,433.71 C208.132,412.424 209.213,391.136 210.521,369.882 C213.565,320.469 218.998,271.4 234.43,224.02 C244.687,192.53 258.977,163.287 282.993,139.677 C299.617,123.335 319.304,112.383 341.715,106.196 C344.203,105.51 346.211,105.568 348.506,107.465 C386.399,138.775 423.378,171.088 457.231,206.802 C466.613,216.7 475.305,227.25 484.479,237.35 C489.195,242.543 494.553,247.058 500.997,250.057 C512.458,255.391 523.53,251.703 529.22,240.42 C534.946,229.067 535.416,216.754 535.177,204.369 C535.146,202.756 534.996,201.144 534.83,198.326 C539.974,204.256 544.362,209.374 548.814,214.436 C566.625,234.692 584.301,255.079 604.678,272.882 C609.831,277.383 615.179,281.669 621.311,284.743 C635.415,291.813 648.527,286.359 653.501,271.403 C657.337,259.87 656.485,248.1 654.911,236.323 C654.697,234.722 654.513,233.117 654.128,230.007 C659.109,235.828 663.204,240.538 667.218,245.317 C683.819,265.083 700.166,285.051 715.609,305.749 C717.883,308.797 719.05,311.935 719.496,315.734 C724.624,359.418 725.938,403.339 727.84,447.222 C728.691,466.834 729.288,486.458 727.445,506.058 C725.1,506.212 725.028,504.106 724.35,502.768 C722.095,498.314 719.902,493.855 716.888,489.821 C704.256,472.913 683.138,467.976 665.049,478.859 C649.995,487.916 640.743,501.414 639.763,519.491 C638.933,534.813 646.059,545.978 658.95,553.673 C666.23,558.018 674.34,559.904 682.694,560.667 C696.806,561.956 707.841,556.293 716.775,545.606 C718.61,543.411 719.685,539.777 723.678,540.105 C723.923,541.145 724.063,542.175 723.444,543.146" fill="#FEF2DF"/>
    <path d="M313.452,70.88 C319.454,67.27 325.518,63.868 331.97,61.003 C342.171,56.472 352.565,52.611 362.488,47.065 C386.159,33.837 412.351,26.898 439.003,22.16 C461.003,18.248 483.215,16.33 505.566,17.238 C569.781,19.849 627.442,39.992 676.898,81.836 C728.244,125.28 759.239,180.381 771.275,246.378 C776.712,276.19 777.718,306.279 776.143,336.417 C774.684,364.346 770.264,391.933 764.168,419.239 C763.437,422.513 762.691,424.856 758.433,423.206 C756.172,422.33 753.541,422.304 751.06,422.118 C743.446,421.55 743.563,421.588 743.268,414.217 C742.145,386.13 740.544,358.07 737.981,330.073 C737.817,328.286 737.808,327.167 739.381,325.815 C744.009,321.837 744.358,318.507 741.01,313.113 C732.21,298.938 721.902,285.851 711.53,272.83 C690.161,246.004 668.236,219.643 644.939,194.452 C643.479,192.872 641.761,191.527 640.136,190.103 C636.437,186.861 632.48,186.203 628.326,189.171 C625.017,191.537 624.062,196.516 626.496,200.944 C632.594,212.04 635.908,224.021 637.971,236.369 C639.481,245.407 640.343,254.531 638.322,263.656 C636.655,271.184 633.678,272.608 627.165,268.618 C613.647,260.335 603.164,248.579 592.289,237.362 C570.259,214.637 550.346,190.02 529.534,166.207 C528.001,164.454 526.487,162.669 524.808,161.062 C520.652,157.088 516,156.483 512.188,159.281 C508.795,161.772 508.175,166.533 510.526,171.475 C518.92,189.113 520.367,207.582 516.457,226.478 C514.289,236.955 511.282,237.811 502.814,231.34 C495.584,225.815 490.405,218.375 484.493,211.628 C467.024,191.689 448.243,173.045 428.82,155.034 C405.742,133.631 381.911,113.093 357.542,93.175 C353.432,89.815 349.573,89.081 343.703,89.55 C335.302,90.223 327.917,92.845 320.505,95.714 C287.207,108.6 262.648,131.779 244.138,161.818 C224.654,193.437 213.934,228.313 206.527,264.352 C199.956,296.323 196.227,328.673 194.329,361.247 C193.46,376.175 192.436,391.093 191.483,406.016 C188.843,405.899 189.024,403.579 188.658,402.015 C184.974,386.267 182.533,370.335 180.977,354.218 C179.531,339.232 179.637,324.22 180.315,309.294 C181.706,278.663 187.931,248.83 198.659,220.08 C210.845,187.421 227.044,156.861 248.61,129.363 C265.561,107.747 284.767,88.464 308.362,73.947 C310.049,72.908 311.989,72.283 313.452,70.88" fill="#BB9D8C"/>
    <path d="M756.269,1007.07 C727.649,1000.259 699.024,993.47 670.412,986.627 C651.661,982.142 632.963,977.434 614.164,973.171 C610.176,972.266 610.094,970.724 610.893,967.412 C628.505,894.375 646.048,821.321 663.499,748.245 C664.327,744.779 665.313,743.814 669.042,744.855 C678.643,747.534 688.363,749.83 698.12,751.873 C701.672,752.617 701.806,754.136 701.027,757.019 C699.422,762.952 697.973,768.931 696.616,774.927 C695.136,781.47 697.43,785.265 703.858,786.824 C728.57,792.818 753.293,798.763 778.024,804.679 C784.943,806.334 788.664,803.879 790.339,796.791 C791.754,790.806 793.287,784.845 794.552,778.829 C795.108,776.186 796.09,775.333 798.865,776.056 C807.067,778.192 815.311,780.186 823.589,782.003 C826.513,782.645 826.815,784.037 826.196,786.582 C820.025,811.938 813.851,837.293 807.9,862.7 C807.129,865.99 805.719,866.451 802.78,866.189 C795.217,865.515 787.842,866.434 780.893,869.762 C769.212,875.355 763.999,886.583 767.073,899.136 C768.59,905.332 771.696,910.833 774.446,916.724 C770.124,918.036 765.853,918.672 761.959,920.663 C753.875,924.794 749.297,931.187 748.546,940.259 C748.381,942.25 748.359,944.254 748.167,946.242 C747.723,950.833 746.234,954.334 741.89,957.245 C732.532,963.516 729.962,977.312 735.743,987.171 C740.972,996.087 748.876,1002.05 758.208,1006.24 C758.197,1007.99 757.153,1007.35 756.269,1007.07" fill="#FEFEFE"/>
    <path d="M175.353,734.967 C174.702,743.921 173.978,752.87 173.434,761.831 C173.221,765.347 172.084,767.916 169.12,770.219 C158.217,778.694 147.53,787.452 136.878,796.243 C135.038,797.761 133.386,798.493 131.045,797.937 C101.641,790.954 73.19,781.523 47.645,764.875 C36.771,757.789 27.238,749.125 21.834,737.066 C13.875,719.306 16.15,701.996 25.934,685.603 C30.49,677.971 37.882,676.06 46.32,677.43 C55.966,678.997 64.724,682.939 73.264,687.482 C94.759,698.916 114.247,713.466 134.472,726.873 C135.026,727.241 135.569,727.628 136.107,728.019 C139.748,730.666 143.576,732.679 148.041,730.105 C152.557,727.501 152.392,723.209 152.043,718.695 C151.071,706.109 149.223,693.521 151.275,680.876 C151.75,677.95 151.839,673.911 154.809,673.143 C158.26,672.251 159.919,676.203 161.654,678.69 C171.351,692.589 174.187,708.507 174.917,724.992 C175.063,728.308 174.938,731.637 174.938,734.96 C175.076,734.962 175.215,734.965 175.353,734.967" fill="#FEF8EA"/>
    <path d="M207.702,504.063 C208.467,504.739 209.219,506.191 209.932,503.987 C212.281,496.73 216.537,490.572 221.526,484.973 C240.569,463.603 273.168,461.276 291.633,485.377 C299.712,495.923 304.86,507.421 304.616,521.154 C304.466,529.612 301.408,536.745 296.774,543.313 C288.931,554.427 279.53,563.693 265.088,565.24 C248.208,567.049 232.903,563.161 219.761,551.931 C218.477,550.834 217.98,548.148 215.322,549.147 C211.05,534.411 208.892,519.319 207.702,504.063" fill="#FFD5BA"/>
    <path d="M723.396,540.082 C718.316,545.473 713.854,551.485 707.734,555.834 C695.049,564.848 672.064,563.88 656.732,553.945 C646.369,547.23 639.898,537.993 638.484,525.738 C637,512.878 641.181,501.286 648.968,491.324 C657.397,480.541 668.022,472.706 682.435,472.049 C700.686,471.217 713.464,479.904 722.098,495.439 C724.021,498.901 725.67,502.515 727.445,506.058 C727.4,516.818 726.22,527.466 724.31,538.043 C723.696,538.584 724.104,539.583 723.396,540.082" fill="#FFD5BA"/>
    <path d="M799.698,882.913 C816.192,883.128 834.779,896.824 839.255,911.812 C841.072,917.894 839.98,923.681 837.95,929.396 C830.242,951.092 817.569,969.34 799.329,983.442 C790.292,990.43 780.283,995.222 768.304,991.98 C761.309,990.088 755.828,985.848 751.318,980.303 C748.525,976.868 748.579,972.673 752.113,970.664 C762.605,964.7 765.143,955.026 765.037,944.38 C764.972,937.747 768.839,935.133 774.786,934.018 C778.736,933.277 782.72,933.636 786.716,933.881 C795.002,934.389 799.071,928.53 795.568,920.916 C792.445,914.129 788.587,907.678 785.527,900.865 C780.285,889.192 783.855,883.655 796.703,882.92 C797.699,882.864 798.7,882.913 799.698,882.913" fill="#FEF8EA"/>
    <path d="M313.452,70.88 C308.515,75.852 302.251,79.032 296.748,83.253 C260.131,111.339 233.734,147.461 213.569,188.519 C197.13,221.991 186.604,257.25 182.767,294.333 C178.915,331.564 181.565,368.444 190.667,404.804 C190.779,405.248 191.204,405.614 191.482,406.016 C191.521,409.012 191.358,412.026 191.643,414.998 C192.122,419.997 190.976,422.696 185.027,422.72 C181.666,422.734 180.462,422.101 179.516,419.078 C171.329,392.894 166.593,366.157 166.3,338.684 C165.414,255.636 194.07,183.593 247.979,121.21 C265.525,100.906 286.877,85.013 310.17,71.728 C311.292,71.088 312.369,71.18 313.452,70.88" fill="#FEFEFE"/>
    <path d="M744.417,472.534 C744.417,462.574 744.526,452.612 744.353,442.656 C744.298,439.513 744.785,438.37 748.398,438.75 C760.407,440.014 771.638,442.854 780.253,452.063 C794.902,467.723 787.677,495.67 767.373,502.026 C760.832,504.073 754.053,504.698 747.315,505.644 C744.235,506.077 744.44,504.309 744.613,502.42 C745.521,492.473 745.291,482.499 744.417,472.534" fill="#FEF8EA"/>
    <path d="M190.527,472.183 C190.527,481.819 190.277,491.464 190.649,501.086 C190.799,504.967 189.528,505.664 186.234,505.007 C182.656,504.292 179.024,503.829 175.464,503.039 C157.051,498.956 149.332,487.708 151.96,466.674 C153.663,453.042 163.212,445.861 175.538,441.772 C190.801,436.708 190.796,436.7 190.467,452.254 C190.396,455.578 190.329,458.902 190.301,462.226 C190.273,465.545 190.295,468.864 190.295,472.183 C190.372,472.183 190.45,472.183 190.527,472.183" fill="#FEF8EA"/>
    <path d="M478.849,888.865 C473.638,876.006 468.924,864.313 464.141,852.649 C463.529,851.158 463.689,849.729 463.832,848.246 C465.406,831.87 467.108,815.504 468.467,799.109 C468.796,795.141 469.806,793.729 474.098,793.988 C485.047,794.649 484.998,794.415 485.578,805.593 C486.499,823.354 487.408,841.116 488.557,858.863 C488.868,863.655 488.199,868.005 486.108,872.321 C483.656,877.384 481.566,882.623 478.849,888.865" fill="#6FACCC"/>
    <path d="M773.688,786.294 C757.054,782.302 740.928,778.446 724.81,774.559 C714.551,772.086 714.849,772.126 716.969,761.846 C717.886,757.398 719.445,756.901 723.49,757.928 C740.682,762.294 757.934,766.434 775.225,770.388 C778.543,771.146 779.148,772.463 778.292,775.393 C777.455,778.256 776.923,781.206 776.149,784.089 C775.769,785.509 775.445,787.306 773.688,786.294" fill="#FEFEFE"/>
    <path d="M482.342,777.823 C477.323,777.575 471.36,777.15 465.39,777.045 C462.826,777.001 461.821,776.02 461.663,773.581 C461.46,770.439 461.165,767.295 460.725,764.178 C460.439,762.143 461.692,761.142 462.955,760.061 C467.622,756.066 472.372,752.162 476.932,748.047 C478.713,746.439 479.867,746.621 481.491,748.185 C485.076,751.641 488.783,754.974 492.523,758.264 C494.048,759.605 494.622,761.109 494.376,763.098 C494.152,764.907 494.209,766.75 494.014,768.564 C492.988,778.086 492.974,778.084 482.342,777.823" fill="#6FACCC"/>
    <path d="M542.322,731.847 C534.267,740.923 526.991,749.07 519.792,757.285 C518.654,758.584 517.948,758.666 516.646,757.465 C507.993,749.475 499.264,741.567 489.568,732.728 C507.461,731.803 524.204,731.055 542.322,731.847" fill="#FEFDFD"/>
    <path d="M468.958,732.809 C459.193,741.143 450.558,748.359 442.131,755.81 C439.885,757.796 438.901,756.757 437.461,755.113 C430.9,747.628 424.273,740.201 416.914,731.898 C434.294,732.297 450.848,733.52 468.958,732.809" fill="#FEFEFE"/>
    <path d="M503.558,825.934 C503.082,816.811 502.637,807.686 502.106,798.566 C502.004,796.809 501.871,795.545 504.087,794.747 C507.969,793.349 509.396,790.12 509.51,786.078 C509.607,782.6 510.058,779.131 510.412,774.958 C515.686,779.751 521.012,781.352 527.094,776.489 C519.853,793.308 512.612,810.128 505.371,826.948 C504.248,827.537 503.985,826.589 503.558,825.934" fill="#FEFEFE"/>
    <path d="M432.634,775.578 C437.03,778.344 440.949,778.563 445.025,775.664 C445.5,779.458 445.95,782.697 446.296,785.947 C446.499,787.859 447.018,789.899 448.664,790.677 C452.809,792.637 452.277,795.741 451.764,799.35 C450.977,804.881 450.697,810.483 449.369,816.309 C443.926,803.061 438.483,789.814 432.634,775.578" fill="#FDFDFD"/>
    <path d="M760.388,1006.97 C762.398,1007.66 764.408,1008.35 766.418,1009.03 C766.724,1009.2 766.828,1009.37 766.732,1009.55 C766.635,1009.72 766.537,1009.81 766.436,1009.81 C764.397,1009.28 762.17,1009.43 760.34,1008.13 C759.805,1007.72 759.82,1007.34 760.388,1006.97" fill="#C6B6A4"/>
    <path d="M766.436,1009.81 C766.42,1009.55 766.414,1009.29 766.418,1009.03 C768.144,1009.03 769.976,1008.59 771.558,1010.37 C769.583,1011.28 768.083,1009.66 766.436,1009.81" fill="#E0D8CF"/>
    <path d="M503.558,825.934 C504.162,826.272 504.766,826.61 505.371,826.948 C505.531,828.218 504.655,828.843 503.957,829.863 C503.094,828.337 503.421,827.129 503.558,825.934" fill="#D5CABD"/>
    <path d="M723.396,540.082 C723.382,539.26 723.527,538.508 724.31,538.043 C724.423,539.812 724.463,541.569 723.444,543.146 C723.428,542.125 723.412,541.104 723.396,540.082" fill="#FFEDDA"/>
    <path d="M760.388,1006.97 C760.372,1007.36 760.356,1007.74 760.34,1008.13 C758.903,1008.09 757.417,1008.23 756.269,1007.07 C756.915,1006.79 757.562,1006.52 758.208,1006.24 C758.935,1006.48 759.661,1006.73 760.388,1006.97" fill="#D2C7B9"/>
    <path d="M474.592,663.163 C455.067,662.239 435.686,651.933 422.515,630.77 C418.99,625.106 419.919,619.904 424.55,617.322 C429.087,614.794 433.532,616.493 436.866,622.031 C448.01,640.542 470.516,650.223 490.374,645.105 C502.155,642.069 510.072,634.538 515.351,623.884 C516.014,622.548 516.551,621.149 517.211,619.811 C519.474,615.222 524.028,613.311 528.353,615.104 C532.607,616.868 534.323,621.429 532.6,626.389 C524.86,648.668 503.984,663.189 474.592,663.163" fill="#6E4100"/>
    <path d="M389.464,408.054 C389.271,413.209 388.629,418.116 386.574,422.755 C383.798,429.02 379.388,432.821 372.209,433.247 C364.608,433.698 359.52,430.306 356.134,423.819 C349.382,410.878 352.72,392.077 363.06,384.732 C372.232,378.217 380.525,380.28 385.554,390.366 C388.351,395.976 389.264,402.013 389.464,408.054" fill="#6E4100"/>
    <path d="M553.327,406.264 C553.634,398.334 555.892,389.227 565.271,383.593 C573.062,378.913 580.445,380.402 584.83,388.267 C591.279,399.836 591.753,412.02 586.383,424.142 C583.757,430.07 578.875,433.05 572.163,433.261 C565.219,433.48 560.443,430.473 557.129,424.622 C554.265,419.567 553.301,414.074 553.327,406.264" fill="#6E4100"/>
    <path d="M395.337,212.774 C395.337,217.371 391.752,220.679 387.275,219.916 C372.529,217.401 357.815,214.693 343.12,211.895 C339.109,211.131 336.773,207.352 337.771,203.67 C338.83,199.76 341.587,197.68 345.615,198.379 C360.354,200.937 375.068,203.641 389.768,206.412 C393.315,207.081 395.024,209.648 395.337,212.774" fill="#6E4100"/>
    <path d="M463.247,447.096 C463.293,441.787 465.894,438.499 470.436,438.02 C475.298,437.506 478.782,440.145 479.768,445.484 C480.116,447.372 481.044,448.803 481.897,450.396 C483.907,454.148 482.883,458.641 479.654,461.106 C476.305,463.662 471.938,463.528 468.771,460.46 C465.039,456.845 463.174,452.339 463.247,447.096" fill="#6E4100"/>
  </g>
</svg>
